<?xml version="1.0" ?><svg height="512px" version="1.1" viewBox="0 0 512 512" width="512px" xmlns="http://www.w3.org/2000/svg" xmlns:xlink="http://www.w3.org/1999/xlink"><title/><desc/><defs/><g fill="none" fill-rule="evenodd" id="SVG" stroke="none" stroke-width="1"><g id="Mango"><g transform="translate(0.000000, 2.000000)"><path d="M388.386118,264.62471 C388.386118,180.473029 320.186091,112.251814 236.060544,112.251814 C197.393282,112.251814 162.216028,126.77072 135.354314,150.515181 L135.341714,150.515181 C131.057951,154.30875 127.000976,158.341779 123.158188,162.589064 C49.8302439,230.406975 76.6037631,331.711635 40.5697561,367.567788 C-3.26321951,411.187522 1.78910105,479.320514 74.9910523,491.394397 C238.265422,518.340075 335.55724,380.145798 335.55724,380.145798 C360.466063,353.011072 388.386118,304.35005 388.386118,264.62471" fill="#FAD841" id="Fill-1"/><path d="M375.712479,203.853257 C375.712479,204.357386 375.788075,204.836308 375.788075,205.340437 C375.788075,251.669863 343.218877,308.42215 314.177483,340.056225 C314.177483,340.056225 209.275685,488.90022 32.0160892,472.528641 C42.1459289,481.565147 56.3201449,488.320472 74.9923122,491.395657 C238.266682,518.328732 335.5585,380.147059 335.5585,380.147059 C360.454723,353.012332 388.387378,304.351311 388.387378,264.62597 C388.387378,243.011453 383.826431,222.480812 375.712479,203.853257" fill="#FAAC28" id="Fill-3"/><path d="M236.060544,124.852511 C202.105422,124.852511 169.309436,137.317092 143.695052,159.95247 C139.839666,163.367942 136.072474,167.085891 132.506871,171.043302 C91.6599303,208.87816 83.8231638,256.883814 76.893547,299.21802 C71.6648362,331.242795 67.1416864,358.906857 49.4522648,376.500948 C29.4571707,396.414031 20.8266481,422.716945 27.4664808,443.487047 C33.4133519,462.076793 51.0145784,474.667407 77.0447387,478.965104 C230.806634,504.360586 324.331261,374.207163 325.26361,372.883825 C325.565993,372.442712 325.906174,372.014203 326.284153,371.6109 C350.877993,344.81646 375.786815,299.457481 375.786815,264.622189 C375.786815,187.553516 313.105282,124.852511 236.060544,124.852511 M117.551498,507.536597 C103.276488,507.536597 88.4093101,506.377101 72.9499652,503.818648 C37.117547,497.920342 12.4355122,479.217168 3.47740767,451.187613 C-6.18625784,421.015511 4.63654355,385.562661 31.6872474,358.629586 C43.5809895,346.782562 47.4993728,322.861656 52.0225226,295.147181 C59.229324,251.098937 68.1874286,196.262339 114.603261,153.335781 C118.005073,149.4918 122.452627,145.093277 127.000976,141.072851 C157.226704,114.354031 195.956962,99.6460763 236.060544,99.6460763 C327.002314,99.6460763 400.985422,173.652168 400.985422,264.622189 C400.985422,307.548747 372.25901,358.541364 345.359498,388.095908 C337.472334,399.010294 255.551666,507.523994 117.551498,507.536597" fill="#454849" id="Fill-5"/><path d="M304.913215,138.428696 C301.423208,138.428696 297.945801,136.991929 295.463738,134.156206 C290.852393,128.938474 291.356365,120.97324 296.572477,116.373066 C336.852449,80.8193905 342.950511,12.257889 343.000909,11.5773153 C343.567877,4.63294263 349.779334,-0.496566757 356.582957,0.0453715818 C363.512574,0.599913138 368.678289,6.67466382 368.123919,13.6064333 C367.859334,16.8202536 361.2447,92.918479 313.241355,135.277892 C310.847487,137.395232 307.874052,138.428696 304.913215,138.428696" fill="#454849" id="Fill-7"/><path d="M496.533497,109.976933 C378.528424,-2.51938311 329.643128,113.99736 329.643128,113.99736 C329.643128,113.99736 384.072117,228.018666 496.533497,109.976933" fill="#3BB777" id="Fill-9"/><path d="M496.533497,109.978194 L329.643128,113.99862 C329.643128,113.99862 384.072117,228.019926 496.533497,109.978194" fill="#229857" id="Fill-11"/><path d="M343.88664,113.628085 C350.198891,123.811485 366.792173,146.156989 392.923128,150.227828 C418.172131,154.248254 446.860744,140.788018 478.346403,110.414265 C445.361427,81.5150881 415.942054,69.5168253 390.945037,74.7849701 C364.952675,80.2169567 349.644521,103.154812 343.88664,113.628085 M401.667044,176.114836 C397.345483,176.114836 393.049121,175.787153 388.790556,175.106579 C341.769957,167.607665 319.204605,121.391667 318.272256,119.425565 C316.722542,116.186539 316.634347,112.43078 318.02027,109.128737 C318.864424,107.112222 339.1745,59.8501577 385.791922,50.1078709 C421.81333,42.5459406 462.005107,59.6485063 505.233316,100.848423 C507.652382,103.154812 509.050905,106.330823 509.1265,109.670675 C509.214695,113.010528 507.954765,116.249555 505.661692,118.656769 C469.287504,156.844517 434.374835,176.114836 401.667044,176.114836" fill="#454849" id="Fill-13"/><path d="M109.532042,287.611718 C109.078467,287.611718 108.612293,287.573908 108.146118,287.510892 C102.980404,286.754699 99.4148014,281.952873 100.17076,276.785554 C100.548739,274.214498 109.821826,213.429181 145.150272,185.6895 C149.257645,182.47568 155.191916,183.194063 158.417338,187.290109 C161.64276,191.386154 160.924599,197.334873 156.817226,200.561297 C127.372655,223.700803 118.956321,278.965911 118.868125,279.533055 C118.187763,284.221452 114.143387,287.611718 109.532042,287.611718" fill="#FEFEFE" id="Fill-15"/><path d="M188.152953,163.39819 C193.356466,167.809316 194.011629,175.610708 189.589274,180.815836 C185.179518,186.033568 177.380549,186.676332 172.177037,182.265206 C166.973525,177.85408 166.318361,170.052689 170.740716,164.834957 C175.150472,159.629828 182.949441,158.987064 188.152953,163.39819" fill="#FEFEFE" id="Fill-17"/></g></g></g></svg>